<svg width="372" height="53" viewBox="0 0 372 53" fill="none" xmlns="http://www.w3.org/2000/svg">
<path d="M12.864 34.752C10.768 34.752 8.864 34.384 7.152 33.648C5.44 32.912 3.968 31.872 2.736 30.528C1.52 29.168 0.608 27.568 0 25.728L5.64 23.64C6.36 25.176 7.36 26.44 8.64 27.432C9.936 28.408 11.392 28.896 13.008 28.896C14.72 28.896 16.08 28.536 17.088 27.816C18.112 27.096 18.624 26.048 18.624 24.672C18.624 23.728 18.32 22.944 17.712 22.32C17.12 21.68 16.312 21.136 15.288 20.688C14.28 20.224 13.136 19.776 11.856 19.344C10.624 18.928 9.384 18.464 8.136 17.952C6.888 17.44 5.744 16.816 4.704 16.08C3.664 15.328 2.824 14.384 2.184 13.248C1.56 12.112 1.248 10.72 1.248 9.072C1.248 7.424 1.688 5.912 2.568 4.536C3.448 3.16 4.72 2.064 6.384 1.248C8.064 0.415999 10.096 0 12.48 0C14.432 0 16.16 0.335999 17.664 1.008C19.184 1.664 20.44 2.56 21.432 3.696C22.424 4.832 23.112 6.12 23.496 7.56L17.928 9.408C17.48 8.4 16.792 7.56 15.864 6.888C14.952 6.2 13.712 5.856 12.144 5.856C10.672 5.856 9.528 6.144 8.712 6.72C7.896 7.296 7.488 8.112 7.488 9.168C7.488 9.888 7.76 10.504 8.304 11.016C8.864 11.512 9.608 11.96 10.536 12.36C11.48 12.76 12.544 13.168 13.728 13.584C15.056 14.032 16.376 14.544 17.688 15.12C19.016 15.68 20.216 16.368 21.288 17.184C22.376 18 23.248 19.016 23.904 20.232C24.56 21.432 24.888 22.904 24.888 24.648C24.888 26.792 24.352 28.616 23.28 30.12C22.224 31.624 20.792 32.776 18.984 33.576C17.176 34.36 15.136 34.752 12.864 34.752Z" fill="#C44536"/>
<path d="M31.3575 34.176V0.575998H45.5415C48.3735 0.575998 50.6215 1.096 52.2855 2.136C53.9495 3.16 55.1415 4.48 55.8615 6.096C56.5815 7.696 56.9415 9.368 56.9415 11.112C56.9415 12.328 56.7255 13.56 56.2935 14.808C55.8775 16.04 55.2135 17.176 54.3015 18.216C53.4055 19.24 52.2295 20.072 50.7735 20.712C49.3335 21.336 47.5895 21.648 45.5415 21.648H37.5735V34.176H31.3575ZM37.5735 15.792H45.8295C46.9815 15.792 47.9015 15.56 48.5895 15.096C49.2935 14.616 49.7975 14.016 50.1015 13.296C50.4055 12.576 50.5575 11.848 50.5575 11.112C50.5575 10.44 50.4135 9.744 50.1255 9.024C49.8535 8.288 49.3735 7.672 48.6855 7.176C47.9975 6.68 47.0455 6.432 45.8295 6.432H37.5735V15.792Z" fill="#C44536"/>
<path d="M75.663 34.752C72.975 34.752 70.695 34.248 68.823 33.24C66.951 32.216 65.439 30.864 64.287 29.184C63.151 27.488 62.319 25.616 61.791 23.568C61.263 21.52 60.999 19.456 60.999 17.376C60.999 15.296 61.263 13.232 61.791 11.184C62.319 9.136 63.151 7.272 64.287 5.592C65.439 3.896 66.951 2.544 68.823 1.536C70.695 0.512 72.975 0 75.663 0C78.351 0 80.623 0.512 82.479 1.536C84.351 2.544 85.855 3.896 86.991 5.592C88.143 7.272 88.975 9.136 89.487 11.184C90.015 13.232 90.279 15.296 90.279 17.376C90.279 19.456 90.015 21.52 89.487 23.568C88.975 25.616 88.143 27.488 86.991 29.184C85.855 30.864 84.351 32.216 82.479 33.24C80.623 34.248 78.351 34.752 75.663 34.752ZM75.663 28.776C77.167 28.776 78.439 28.424 79.479 27.72C80.535 27.016 81.383 26.096 82.023 24.96C82.663 23.824 83.127 22.592 83.415 21.264C83.703 19.92 83.847 18.624 83.847 17.376C83.847 16.032 83.703 14.688 83.415 13.344C83.143 11.984 82.687 10.752 82.047 9.648C81.423 8.528 80.583 7.632 79.527 6.96C78.487 6.272 77.199 5.928 75.663 5.928C74.111 5.928 72.807 6.28 71.751 6.984C70.711 7.688 69.871 8.616 69.231 9.768C68.607 10.904 68.151 12.144 67.863 13.488C67.591 14.816 67.455 16.112 67.455 17.376C67.455 18.704 67.591 20.04 67.863 21.384C68.151 22.728 68.615 23.96 69.255 25.08C69.911 26.2 70.759 27.096 71.799 27.768C72.855 28.44 74.143 28.776 75.663 28.776Z" fill="#C44536"/>
<path d="M110.304 34.752C107.616 34.752 105.336 34.248 103.464 33.24C101.592 32.216 100.08 30.864 98.9276 29.184C97.7916 27.488 96.9596 25.616 96.4316 23.568C95.9036 21.52 95.6396 19.456 95.6396 17.376C95.6396 15.296 95.9036 13.232 96.4316 11.184C96.9596 9.136 97.7916 7.272 98.9276 5.592C100.08 3.896 101.592 2.544 103.464 1.536C105.336 0.512 107.616 0 110.304 0C112.992 0 115.264 0.512 117.12 1.536C118.992 2.544 120.496 3.896 121.632 5.592C122.784 7.272 123.616 9.136 124.128 11.184C124.656 13.232 124.92 15.296 124.92 17.376C124.92 19.456 124.656 21.52 124.128 23.568C123.616 25.616 122.784 27.488 121.632 29.184C120.496 30.864 118.992 32.216 117.12 33.24C115.264 34.248 112.992 34.752 110.304 34.752ZM110.304 28.776C111.808 28.776 113.08 28.424 114.12 27.72C115.176 27.016 116.024 26.096 116.664 24.96C117.304 23.824 117.768 22.592 118.056 21.264C118.344 19.92 118.488 18.624 118.488 17.376C118.488 16.032 118.344 14.688 118.056 13.344C117.784 11.984 117.328 10.752 116.688 9.648C116.064 8.528 115.224 7.632 114.168 6.96C113.128 6.272 111.84 5.928 110.304 5.928C108.752 5.928 107.448 6.28 106.392 6.984C105.352 7.688 104.512 8.616 103.872 9.768C103.248 10.904 102.792 12.144 102.504 13.488C102.232 14.816 102.096 16.112 102.096 17.376C102.096 18.704 102.232 20.04 102.504 21.384C102.792 22.728 103.256 23.96 103.896 25.08C104.552 26.2 105.4 27.096 106.44 27.768C107.496 28.44 108.784 28.776 110.304 28.776Z" fill="#C44536"/>
<path d="M131.389 34.176V0.575998H137.197L150.445 20.352C150.621 20.64 150.845 21.032 151.117 21.528C151.405 22.008 151.645 22.448 151.837 22.848C151.789 22.496 151.749 22.072 151.717 21.576C151.701 21.064 151.693 20.656 151.693 20.352V0.575998H157.885V34.176H152.341L138.829 14.256C138.653 13.984 138.421 13.6 138.133 13.104C137.861 12.608 137.629 12.16 137.437 11.76C137.485 12.16 137.517 12.592 137.533 13.056C137.549 13.52 137.557 13.92 137.557 14.256V34.176H131.389Z" fill="#C44536"/>
<path d="M173.84 34.176V4.56H164.48V0.575998H187.376V4.56H178.016V34.176H173.84Z" fill="#197278"/>
<path d="M186.837 34.176L198.741 0.575998H202.629L214.533 34.176H210.261L207.381 25.968H194.037L191.205 34.176H186.837ZM195.285 22.272H206.085L201.765 9.84C201.653 9.52 201.525 9.152 201.381 8.736C201.253 8.304 201.125 7.888 200.997 7.488C200.869 7.072 200.773 6.72 200.709 6.432C200.629 6.72 200.525 7.072 200.397 7.488C200.285 7.888 200.157 8.304 200.013 8.736C199.885 9.152 199.765 9.52 199.653 9.84L195.285 22.272Z" fill="#197278"/>
<path d="M220.734 34.176V0.575998H224.958L239.838 24.48C240.078 24.88 240.31 25.28 240.534 25.68C240.758 26.08 240.99 26.512 241.23 26.976C241.214 26.56 241.19 26.144 241.158 25.728C241.142 25.312 241.134 24.912 241.134 24.528V0.575998H245.31V34.176H241.278L226.158 10.176C225.95 9.808 225.726 9.424 225.486 9.024C225.262 8.624 225.038 8.224 224.814 7.824C224.846 8.176 224.87 8.56 224.886 8.976C224.902 9.392 224.91 9.792 224.91 10.176V34.176H220.734Z" fill="#197278"/>
<path d="M254.531 34.176V0.575998H274.499V4.512H258.707V14.832H269.123V18.768H258.707V30.192H275.555V34.176H254.531Z" fill="#197278"/>
<path d="M295.331 34.752C292.691 34.752 290.459 34.248 288.635 33.24C286.811 32.216 285.347 30.864 284.243 29.184C283.139 27.488 282.331 25.616 281.819 23.568C281.323 21.52 281.075 19.456 281.075 17.376C281.075 15.296 281.323 13.232 281.819 11.184C282.331 9.136 283.139 7.272 284.243 5.592C285.347 3.896 286.811 2.544 288.635 1.536C290.459 0.512 292.691 0 295.331 0C297.987 0 300.227 0.512 302.051 1.536C303.875 2.544 305.339 3.896 306.443 5.592C307.547 7.272 308.347 9.136 308.843 11.184C309.339 13.232 309.587 15.296 309.587 17.376C309.587 19.456 309.339 21.52 308.843 23.568C308.347 25.616 307.547 27.488 306.443 29.184C305.339 30.864 303.875 32.216 302.051 33.24C300.227 34.248 297.987 34.752 295.331 34.752ZM295.331 30.816C297.187 30.816 298.747 30.408 300.011 29.592C301.275 28.776 302.291 27.704 303.059 26.376C303.843 25.032 304.403 23.576 304.739 22.008C305.091 20.424 305.267 18.88 305.267 17.376C305.267 15.728 305.091 14.112 304.739 12.528C304.403 10.928 303.843 9.48 303.059 8.184C302.291 6.872 301.275 5.832 300.011 5.064C298.747 4.28 297.187 3.888 295.331 3.888C293.491 3.888 291.939 4.296 290.675 5.112C289.411 5.928 288.387 7.008 287.603 8.352C286.835 9.68 286.275 11.136 285.923 12.72C285.571 14.304 285.395 15.856 285.395 17.376C285.395 19.024 285.571 20.648 285.923 22.248C286.275 23.832 286.835 25.272 287.603 26.568C288.387 27.864 289.411 28.896 290.675 29.664C291.939 30.432 293.491 30.816 295.331 30.816Z" fill="#197278"/>
<path d="M329.385 34.752C326.633 34.752 324.37 34.24 322.594 33.216C320.818 32.192 319.498 30.696 318.634 28.728C317.77 26.76 317.337 24.368 317.337 21.552V0.575998H321.513V21.552C321.513 24.464 322.121 26.736 323.337 28.368C324.569 30 326.585 30.816 329.385 30.816C331.161 30.816 332.634 30.48 333.802 29.808C334.986 29.12 335.865 28.096 336.441 26.736C337.017 25.36 337.306 23.632 337.306 21.552V0.575998H341.482V21.552C341.482 23.728 341.226 25.64 340.714 27.288C340.201 28.936 339.442 30.32 338.434 31.44C337.426 32.544 336.162 33.376 334.642 33.936C333.138 34.48 331.385 34.752 329.385 34.752Z" fill="#197278"/>
<path d="M360.463 34.752C358.511 34.752 356.743 34.432 355.159 33.792C353.575 33.136 352.231 32.248 351.127 31.128C350.039 29.992 349.247 28.704 348.751 27.264L352.687 25.824C353.359 27.312 354.375 28.52 355.735 29.448C357.111 30.36 358.719 30.816 360.559 30.816C362.575 30.816 364.183 30.336 365.383 29.376C366.583 28.4 367.183 26.992 367.183 25.152C367.183 23.856 366.823 22.768 366.103 21.888C365.383 21.008 364.447 20.272 363.295 19.68C362.143 19.072 360.911 18.528 359.599 18.048C358.431 17.616 357.263 17.136 356.095 16.608C354.927 16.08 353.863 15.456 352.903 14.736C351.959 14 351.199 13.112 350.623 12.072C350.047 11.016 349.759 9.76 349.759 8.304C349.759 6.8 350.167 5.424 350.983 4.176C351.799 2.912 352.975 1.904 354.511 1.152C356.047 0.384 357.903 0 360.079 0C361.855 0 363.415 0.264 364.759 0.792C366.119 1.304 367.231 2.016 368.095 2.928C368.975 3.824 369.583 4.848 369.919 6L366.079 7.296C365.679 6.352 364.943 5.552 363.871 4.896C362.815 4.224 361.455 3.888 359.791 3.888C358.015 3.888 356.615 4.28 355.591 5.064C354.583 5.848 354.079 6.928 354.079 8.304C354.079 9.344 354.415 10.216 355.087 10.92C355.775 11.608 356.671 12.208 357.775 12.72C358.879 13.232 360.063 13.728 361.327 14.208C362.511 14.656 363.695 15.168 364.879 15.744C366.079 16.304 367.175 16.992 368.167 17.808C369.175 18.624 369.983 19.624 370.591 20.808C371.199 21.976 371.503 23.392 371.503 25.056C371.503 27.12 371.023 28.872 370.063 30.312C369.103 31.752 367.791 32.856 366.127 33.624C364.463 34.376 362.575 34.752 360.463 34.752Z" fill="#197278"/>
<path d="M42 48H330V53H42V48Z" fill="#C44536"/>
</svg>
