<svg width="100" height="100" viewBox="0 0 100 100" fill="none" xmlns="http://www.w3.org/2000/svg">
<path d="M11 88.5996H86.4838V96H11V88.5996Z" fill="#C44536"/>
<path d="M46.3453 12.1215L46.3465 12.1192C47.8878 9.05389 49.4447 8.43093 50.2144 8.43093C50.9795 8.43093 52.5278 9.04818 54.0513 12.1113L60.4218 24.8523C61.1005 26.2319 62.2345 27.4112 63.406 28.2756C64.5823 29.1435 66.0423 29.8755 67.5498 30.1268L79.0996 32.0457C82.3243 32.5831 83.3825 33.8539 83.6273 34.6153C83.87 35.3706 83.7556 37.0104 81.4341 39.3161L81.4275 39.3226L72.4484 48.3018C71.2811 49.4691 70.5003 51.03 70.0698 52.534C69.6389 54.0394 69.4777 55.7705 69.8361 57.3692L69.8401 57.3871L72.4103 68.5004C73.3713 72.6703 72.403 74.1713 71.9225 74.5215C71.4374 74.8752 69.7014 75.3363 66.0101 73.1558L55.1867 66.7486C53.8961 65.9847 52.2306 66.4115 51.4666 67.7021C50.7027 68.9926 51.1296 70.6581 52.4201 71.4221L63.2458 77.8306L63.248 77.8319C67.3409 80.2496 71.8325 81.3081 75.1218 78.9101C78.4159 76.5087 78.7691 71.9089 77.7025 67.2807L75.1355 56.1813L75.1339 56.1743C75.0233 55.6727 75.0442 54.8908 75.291 54.0287C75.5393 53.1612 75.9352 52.4954 76.2886 52.142L85.2612 43.1694L85.2651 43.1656C88.2634 40.1859 89.9393 36.505 88.7977 32.9534C87.6575 29.4062 84.1538 27.3822 79.9924 26.6887L68.4426 24.7697C67.9949 24.6948 67.3181 24.4128 66.6305 23.9055C65.9405 23.3964 65.4845 22.8418 65.2936 22.4522L65.2837 22.4322L58.914 9.69271L58.9124 9.68961C56.9963 5.83892 54.0013 3 50.2144 3C46.4314 3 43.427 5.83442 41.4928 9.68253L41.4903 9.6876L36.5744 19.5191C34.8653 19.0235 32.991 18.7756 30.9514 18.7756C27.4229 18.7756 24.4154 19.3913 21.9289 20.6227C19.466 21.8305 17.5834 23.4526 16.2809 25.4892C14.9784 27.5258 14.3272 29.7637 14.3272 32.2029C14.3272 34.642 14.789 36.7023 15.7126 38.3836C16.6598 40.065 17.9031 41.4622 19.4423 42.5752C20.9816 43.6645 22.6748 44.5881 24.522 45.3459C26.3691 46.1037 28.2044 46.7905 30.0278 47.4062C31.9223 48.0456 33.6155 48.7086 35.1075 49.3954C36.6231 50.0585 37.819 50.8636 38.6952 51.8109C39.5951 52.7345 40.045 53.8948 40.045 55.292C40.045 57.3286 39.2872 58.8797 37.7716 59.9454C36.2797 61.011 34.2668 61.5439 31.7329 61.5439C29.3411 61.5439 27.1861 60.8216 25.2679 59.377C23.3734 57.9088 21.8934 56.038 20.8277 53.7646L12.4801 56.855C13.38 59.5783 14.7298 61.9464 16.5296 63.9593C18.353 65.9486 20.5317 67.4878 23.0656 68.5772C25.5995 69.6665 28.4175 70.2112 31.5198 70.2112C34.8825 70.2112 37.9018 69.631 40.5778 68.4706C43.2538 67.2866 45.3733 65.5815 46.9362 63.3555C48.5229 61.1294 49.3162 58.4298 49.3162 55.2565C49.3162 52.6752 48.8307 50.4966 47.8598 48.7205C46.8889 46.9207 45.5982 45.417 43.9879 44.2092C42.4013 43.0015 40.6252 41.9832 38.6596 41.1543C36.7178 40.3018 34.7641 39.544 32.7985 38.8809C31.0461 38.2652 29.4713 37.6614 28.0741 37.0693C26.7006 36.4773 25.5995 35.8142 24.7706 35.0801C23.9655 34.3223 23.5629 33.4106 23.5629 32.3449C23.5629 30.782 24.1667 29.5742 25.3745 28.7217C26.5822 27.8692 28.2754 27.4429 30.4541 27.4429C32.7749 27.4429 34.6102 27.9521 35.96 28.9704C37.3335 29.965 38.3518 31.2082 39.0149 32.7002L47.2559 29.965C46.6876 27.8337 45.6693 25.9273 44.201 24.246C43.4099 23.34 42.5053 22.5371 41.4873 21.8374L46.3453 12.1215Z" fill="#C44536"/>
</svg>
